<svg width="135" height="135" viewBox="0 0 135 135" fill="none" xmlns="http://www.w3.org/2000/svg">
<circle cx="67.5" cy="67.5" r="67.5" fill="white"/>
<circle cx="67.5" cy="67.5" r="67" stroke="#13358C" stroke-opacity="0.25"/>
<path d="M53.2656 46.3869C51.7485 46.3869 50.5142 47.6212 50.5142 49.1383C50.5142 50.6554 51.7485 51.8897 53.2656 51.8897C54.7827 51.8897 56.017 50.6554 56.017 49.1383C56.017 47.6212 54.7827 46.3869 53.2656 46.3869Z" fill="#13358C"/>
<path d="M80.7798 46.3869C79.2627 46.3869 78.0284 47.6212 78.0284 49.1383C78.0284 50.6554 79.2627 51.8897 80.7798 51.8897C82.2968 51.8897 83.5312 50.6554 83.5312 49.1383C83.5312 47.6212 82.2968 46.3869 80.7798 46.3869Z" fill="#13358C"/>
<path d="M103.515 35.7496C98.0178 27.2896 93.6086 23 90.4098 23C87.1708 23 84.3198 24.2137 81.5631 25.3874C78.6626 26.6222 75.9192 27.7899 72.6812 27.7132C70.8879 27.3278 68.9955 27.1271 67.0229 27.1271C65.0518 27.1271 63.1585 27.3271 61.3641 27.7132C58.1274 27.7895 55.383 26.6222 52.4827 25.3874C49.7256 24.2137 46.8746 23 43.6356 23C40.4368 23 36.0276 27.2896 30.5306 35.7496C27.3736 40.6086 23 48.4425 23 50.5142C23 56.6836 26.3891 58.7031 29.9769 60.8413C32.2272 62.1823 34.7778 63.7022 37.0656 66.5151C40.3482 70.551 43.3952 73.2932 46.3805 74.8981C48.8274 76.2135 50.8526 76.5579 52.4397 76.6332C52.4237 76.7318 52.4079 76.8303 52.3925 76.9292C51.589 82.1309 52.0182 85.6051 53.6685 87.2554C53.9397 87.5266 54.3031 87.6719 54.6709 87.6718C54.8341 87.6718 54.9981 87.6432 55.1555 87.5844C56.0275 87.2582 56.0839 86.4438 56.1252 85.8493C56.2125 84.5909 56.4456 81.2389 59.0567 76.6656C59.1273 77.7562 59.198 78.8923 59.2704 80.0594C59.9476 90.9661 60.7151 103.328 63.067 107.584C64.0928 109.44 65.7791 110.627 67.8151 110.926C68.1288 110.972 68.4711 111 68.8414 111C70.9528 111 73.9633 110.096 77.6143 106.526C80.332 103.869 81.8594 100.86 82.772 99.0618C82.9969 98.6186 83.1912 98.2358 83.335 97.9963C83.5904 97.5707 83.6285 97.0615 83.4394 96.5996C83.2939 96.2441 82.9534 95.4118 79.7492 94.5811C79.1819 94.4341 78.5838 94.6624 78.2588 95.1503C76.6778 97.5246 74.8551 99.8229 73.7004 100.961C73.6337 97.1836 74.2306 86.7492 74.9834 76.4737C77.698 81.1445 77.9386 84.5735 78.027 85.8495C78.0683 86.4441 78.1247 87.2584 78.9967 87.5846C79.154 87.6434 79.3181 87.6721 79.4813 87.6719C79.8493 87.6719 80.2127 87.5266 80.4838 87.2556C82.1342 85.6053 82.5636 82.1309 81.7598 76.9294C81.7443 76.8288 81.7282 76.7285 81.712 76.6282C85.5004 76.4203 90.2761 74.7576 96.9798 66.5152C99.2674 63.7024 101.818 62.1824 104.068 60.8415C107.656 58.7031 111.045 56.6837 111.045 50.5142C111.045 48.4425 106.672 40.6086 103.515 35.7496ZM54.8962 78.9726C54.9508 78.4708 55.0217 77.9307 55.1116 77.3495C55.4973 74.8536 56.0884 72.5247 56.583 70.9101L58.3415 72.6686C56.7085 74.9968 55.6224 77.1257 54.8962 78.9726ZM75.8111 72.6684L77.5696 70.9099C78.0641 72.5245 78.6552 74.8532 79.0409 77.3493C79.1307 77.9305 79.2017 78.4707 79.2562 78.9725C78.5302 77.1256 77.4439 74.9968 75.8111 72.6684ZM102.66 58.4778C100.335 59.8635 97.4405 61.5881 94.8452 64.7791C88.5747 72.4887 84.4172 73.8008 81.188 73.8954C81.0506 73.2729 80.9065 72.6733 80.7604 72.1059C80.7824 72.0832 80.8049 72.0614 80.8255 72.037C85.8887 66.0289 89.034 57.2548 89.034 49.1385C89.034 44.648 88.0839 40.6806 86.2128 37.3416C86.0178 36.7918 86.0749 36.1198 86.3776 35.4837C86.7304 34.742 87.3639 34.1656 88.0726 33.9419C88.7971 33.7132 89.199 32.9404 88.9701 32.2157C88.7414 31.4914 87.9686 31.0892 87.2439 31.3182C85.7992 31.7744 84.5778 32.8619 83.8928 34.302C83.2523 35.6488 83.1727 37.1481 83.6745 38.416C83.6793 38.4282 83.6863 38.4389 83.6915 38.4509C83.7049 38.4821 83.7205 38.5125 83.7364 38.5429C83.7499 38.5689 83.762 38.5961 83.7769 38.6208C85.4393 41.5571 86.2825 45.0953 86.2825 49.1388C86.2825 56.0373 83.8277 63.4409 79.8018 68.8909C79.6775 68.5372 79.5623 68.2359 79.4607 67.9965C79.2589 66.8676 78.0282 59.8246 78.0282 56.0175C78.0282 55.2578 77.4122 54.6418 76.6525 54.6418C75.8928 54.6418 75.2768 55.2578 75.2768 56.0175C75.2768 59.6823 76.2905 65.8367 76.6554 67.9334L73.2966 71.2922C72.8743 71.4996 72.5685 71.9168 72.5295 72.42C72.5238 72.4923 71.9646 79.7382 71.5177 87.0592C70.588 102.288 70.9976 102.943 71.3588 103.521C71.7054 104.076 72.2748 104.399 72.9207 104.408C73.8276 104.422 75.058 103.937 77.8932 100.333C78.7289 99.2702 79.4839 98.2174 79.9735 97.5158C80.1217 97.5648 80.2644 97.6147 80.3965 97.6634C80.371 97.7134 80.3451 97.7645 80.3186 97.8169C79.4828 99.4636 78.0839 102.22 75.6907 104.559C72.9709 107.219 70.3165 108.513 68.2149 108.204C66.7202 107.985 65.8999 107.022 65.475 106.253C63.4226 102.54 62.6099 89.4481 62.0165 79.8892C61.8473 77.1651 61.6875 74.592 61.5152 72.4172C61.5149 72.4136 61.5142 72.41 61.5138 72.4064C61.5125 72.3911 61.5102 72.3761 61.5085 72.3608C61.5063 72.3422 61.5037 72.3237 61.5008 72.3053C61.4989 72.2937 61.4977 72.282 61.4954 72.2705C61.4929 72.2566 61.4891 72.243 61.4862 72.2291C61.4822 72.2112 61.4779 72.1933 61.4733 72.1756C61.47 72.1632 61.4676 72.1505 61.464 72.1383C61.4604 72.1257 61.4554 72.1135 61.4514 72.101C61.4457 72.0834 61.4397 72.0661 61.4334 72.0487C61.4287 72.0361 61.4249 72.0231 61.42 72.0107C61.4155 71.9995 61.4098 71.9888 61.405 71.9777C61.3973 71.9598 61.389 71.9421 61.3806 71.9245C61.3747 71.9127 61.3697 71.9003 61.3637 71.8886C61.3586 71.8788 61.3524 71.8695 61.347 71.8599C61.3369 71.8415 61.3262 71.8234 61.3152 71.8054C61.3085 71.7943 61.3025 71.783 61.2954 71.7723C61.2898 71.7637 61.2832 71.7557 61.2774 71.7471C61.265 71.729 61.2521 71.7113 61.2389 71.6939C61.231 71.6836 61.2236 71.6728 61.2153 71.6626C61.209 71.6547 61.2017 71.6471 61.195 71.6392C61.1813 71.6231 61.1672 71.6071 61.1525 71.5914C61.1431 71.5811 61.1338 71.5708 61.124 71.5608C61.1216 71.5582 61.1194 71.5555 61.1169 71.5529L57.4894 67.9253C57.8263 65.8398 58.7684 59.6797 58.7684 56.0172C58.7684 55.2575 58.1525 54.6415 57.3927 54.6415C56.633 54.6415 56.017 55.2575 56.017 56.0172C56.017 59.8209 54.8797 66.8485 54.6879 68.005C54.5777 68.2651 54.452 68.5965 54.316 68.9889C50.2471 63.5298 47.7628 56.0784 47.7628 49.1385C47.7628 45.0948 48.6063 41.5561 50.269 38.6198C50.2827 38.5968 50.2939 38.5718 50.3065 38.5477C50.3233 38.5158 50.3396 38.4836 50.3537 38.4509C50.3589 38.4389 50.366 38.4281 50.3709 38.4159C50.8727 37.148 50.7933 35.6486 50.1525 34.3018C49.4676 32.8618 48.2462 31.7743 46.8015 31.3181C46.0767 31.0887 45.304 31.4912 45.0753 32.2155C44.8464 32.94 45.2483 33.713 45.9728 33.9417C46.6815 34.1654 47.315 34.7418 47.6678 35.4835C47.9703 36.1196 48.0276 36.7917 47.8326 37.3413C45.9614 40.6806 45.0113 44.6482 45.0113 49.1385C45.0113 57.2536 48.156 66.027 53.2183 72.0349C53.2656 72.091 53.3174 72.1407 53.3712 72.1871C53.2319 72.731 53.0947 73.3042 52.9638 73.8978C49.7197 73.8288 45.5396 72.5733 39.2002 64.7787C36.6049 61.588 33.7109 59.8633 31.3855 58.4775C27.8791 56.3883 25.76 55.1252 25.7514 50.5417C25.89 49.479 28.7945 43.4303 32.9973 37.004C35.1694 33.6827 37.2804 30.8998 39.102 28.9565C41.8132 26.0637 43.1756 25.7514 43.6356 25.7514C46.3133 25.7514 48.7865 26.8044 51.4046 27.9188C52.8531 28.5355 54.3259 29.1597 55.8838 29.6375C54.8131 30.1841 53.8033 30.8171 52.863 31.5347C52.2591 31.9956 52.143 32.8588 52.6039 33.463C53.0647 34.0671 53.928 34.1833 54.5321 33.7221C56.5833 32.1571 59.0315 31.0517 61.7634 30.4398C61.7991 30.4335 61.8346 30.4263 61.8691 30.4171C63.4954 30.0613 65.2207 29.8787 67.0225 29.8787C68.8299 29.8787 70.5574 30.0632 72.1856 30.4201C72.2172 30.4281 72.2495 30.4342 72.282 30.44C75.1169 31.0746 77.644 32.2398 79.7425 33.9004C79.9953 34.1004 80.2964 34.1976 80.5953 34.1976C81.0013 34.1976 81.4033 34.0186 81.6749 33.6755C82.1464 33.0797 82.0456 32.2145 81.4499 31.743C80.4331 30.9382 79.3307 30.238 78.1575 29.6388C79.7169 29.1609 81.1911 28.5362 82.6406 27.9192C85.2589 26.8045 87.7319 25.7518 90.4096 25.7518C90.8696 25.7518 92.2321 26.064 94.9432 28.9568C96.7648 30.9002 98.8759 33.6831 101.048 37.0044C105.251 43.4308 108.155 49.4793 108.294 50.542C108.285 55.1252 106.166 56.3883 102.66 58.4778Z" fill="#13358C"/>
</svg>
